<svg width="49" height="49" viewBox="0 0 49 49" fill="none" xmlns="http://www.w3.org/2000/svg">
<path d="M43.9657 8.02946C43.9657 6.92754 43.0725 6.03427 41.9705 6.03427L24.0139 6.03427C22.912 6.03427 22.0187 6.92754 22.0187 8.02946C22.0187 9.13137 22.912 10.0246 24.0139 10.0246H39.9754V25.9861C39.9754 27.088 40.8686 27.9813 41.9705 27.9813C43.0725 27.9813 43.9657 27.088 43.9657 25.9861L43.9657 8.02946ZM9.44023 43.3814L43.3814 9.44027L40.5597 6.61865L6.61861 40.5598L9.44023 43.3814Z" fill="#3F5BF2"/>
<line x1="35.6066" y1="29.9497" x2="22.1716" y2="43.3848" stroke="#3F5BF2" stroke-width="4"/>
<line x1="20.0503" y1="14.3934" x2="6.61523" y2="27.8284" stroke="#3F5BF2" stroke-width="4"/>
<circle cx="5.90814" cy="12.9792" r="3" transform="rotate(45 5.90814 12.9792)" fill="#24346B"/>
<circle cx="37.0208" cy="44.0919" r="3" transform="rotate(45 37.0208 44.0919)" fill="#24346B"/>
</svg>
